HIERARCHY
ROOT joint_Root
{
	OFFSET 0.0 0.0 0.0
	CHANNELS 6 Xposition Yposition Zposition Zrotation Xrotation Yrotation 
	JOINT Hips
	{
		OFFSET -17.1583 93.1646 452.98
		CHANNELS 6 Xposition Yposition Zposition Zrotation Xrotation Yrotation 
		JOINT Spine
		{
			OFFSET 15.7357 0.0 0.0
			CHANNELS 6 Xposition Yposition Zposition Zrotation Xrotation Yrotation 
			JOINT Chest
			{
				OFFSET 8.98455 -0.406207 0.0
				CHANNELS 6 Xposition Yposition Zposition Zrotation Xrotation Yrotation 
				JOINT Neck
				{
					OFFSET 16.3773 0.0 0.0
					CHANNELS 6 Xposition Yposition Zposition Zrotation Xrotation Yrotation 
					JOINT Head
					{
						OFFSET 6.45672 0.0 0.0
						CHANNELS 6 Xposition Yposition Zposition Zrotation Xrotation Yrotation 
						End Site
						{
							OFFSET 0.0 0.0 0.0
						}
					}
				}
				JOINT Shoulder_L
				{
					OFFSET 12.9942 -0.242716 4.98039
					CHANNELS 6 Xposition Yposition Zposition Zrotation Xrotation Yrotation 
					JOINT UpperArm_L
					{
						OFFSET 5.34809 0.0 0.0
						CHANNELS 6 Xposition Yposition Zposition Zrotation Xrotation Yrotation 
						JOINT LowerArm_L
						{
							OFFSET 24.3286 1.87007e-05 0.0
							CHANNELS 6 Xposition Yposition Zposition Zrotation Xrotation Yrotation 
							JOINT Hand_L
							{
								OFFSET 22.2916 0.0 0.0
								CHANNELS 6 Xposition Yposition Zposition Zrotation Xrotation Yrotation 
								End Site
								{
									OFFSET 0.0 0.0 0.0
								}
							}
						}
					}
				}
				JOINT Shoulder_R
				{
					OFFSET 12.9945 -0.242716 -4.98039
					CHANNELS 6 Xposition Yposition Zposition Zrotation Xrotation Yrotation 
					JOINT UpperArm_R
					{
						OFFSET -5.34813 0.0 0.0
						CHANNELS 6 Xposition Yposition Zposition Zrotation Xrotation Yrotation 
						JOINT LowerArm_R
						{
							OFFSET -24.3289 0.000322201 0.0
							CHANNELS 6 Xposition Yposition Zposition Zrotation Xrotation Yrotation 
							JOINT Hand_R
							{
								OFFSET -22.2915 -0.000108084 0.0
								CHANNELS 6 Xposition Yposition Zposition Zrotation Xrotation Yrotation 
								End Site
								{
									OFFSET 0.0 0.0 0.0
								}
							}
						}
					}
				}
			}
		}
		JOINT UpperLeg_L
		{
			OFFSET -2.19248 -6.46944 0.0
			CHANNELS 6 Xposition Yposition Zposition Zrotation Xrotation Yrotation 
			JOINT LowerLeg_L
			{
				OFFSET 39.0811 0.0 -1.23785e-05
				CHANNELS 6 Xposition Yposition Zposition Zrotation Xrotation Yrotation 
				JOINT Foot_L
				{
					OFFSET 40.9854 0.0 -1.26872e-05
					CHANNELS 6 Xposition Yposition Zposition Zrotation Xrotation Yrotation 
					JOINT Toes_L
					{
						OFFSET 11.7543 0.0 0.0
						CHANNELS 6 Xposition Yposition Zposition Zrotation Xrotation Yrotation 
						End Site
						{
							OFFSET 0.0 0.0 0.0
						}
					}
				}
			}
		}
		JOINT UpperLeg_R
		{
			OFFSET -2.19251 6.46944 0.0
			CHANNELS 6 Xposition Yposition Zposition Zrotation Xrotation Yrotation 
			JOINT LowerLeg_R
			{
				OFFSET -39.0811 -0.00228153 -0.0401928
				CHANNELS 6 Xposition Yposition Zposition Zrotation Xrotation Yrotation 
				JOINT Foot_R
				{
					OFFSET -40.9854 0.0 0.0
					CHANNELS 6 Xposition Yposition Zposition Zrotation Xrotation Yrotation 
					JOINT Toes_R
					{
						OFFSET -11.7543 0.0 0.0
						CHANNELS 6 Xposition Yposition Zposition Zrotation Xrotation Yrotation 
						End Site
						{
							OFFSET 0.0 0.0 0.0
						}
					}
				}
			}
		}
	}
}
MOTION
Frames:	7
Frame Time:	0.0333333
0.000000 0.000000 0.000000 0.000000 0.000000 -0.000000 -2.720960 91.636100 0.688034 85.327900 -1.761940 9.954200 15.735700 0.000005 -0.000001 74.885200 85.179000 -72.094600 8.984550 -0.406207 -0.000000 1.615200 -2.662480 5.614630 16.377300 -0.000001 -0.000001 16.860200 2.475090 8.403720 6.456720 -0.000001 -0.000000 -8.356830 -0.879426 18.913400 12.994200 -0.242716 4.980390 -92.351600 6.324300 -69.555000 5.348090 -0.000007 -0.000001 -78.532700 -21.268200 -9.082550 24.328600 0.000019 0.000005 35.866700 -36.593500 -129.507000 22.291600 -0.000001 0.000005 47.002200 5.007610 7.156940 12.994500 -0.242716 -4.980390 86.370000 8.466700 -66.689900 -5.348130 -0.000001 -0.000004 -71.553400 -6.356200 -13.660300 -24.328900 0.000322 -0.000009 12.384700 -14.160100 -138.088000 -22.291500 -0.000108 -0.000004 48.093600 5.654990 -15.512000 -2.192480 -6.469440 -0.000000 -175.393000 0.837553 3.241010 39.081100 -0.000007 -0.000012 0.417068 -0.776781 28.233300 40.985400 -0.000006 -0.000013 0.496346 0.310382 -76.596600 11.754300 -0.000000 0.000003 -0.000671 0.178246 -9.346600 -2.192510 6.469440 -0.000001 -172.993000 8.948470 -170.529000 -39.081100 -0.002282 -0.040193 0.161210 -0.495195 17.684200 -40.985400 0.000008 0.000006 5.659030 4.479810 -73.130400 -11.754300 -0.000006 -0.000006 -0.011462 0.281924 -5.116420
0.000000 0.000000 0.000000 0.000000 0.000000 -0.000000 -2.687030 91.642900 0.675865 85.345400 -1.698040 9.882530 15.735700 0.000005 -0.000001 75.071600 85.194600 -72.304400 8.984550 -0.406207 -0.000000 1.591570 -2.623510 5.566710 16.377300 -0.000001 -0.000001 16.793200 2.405340 8.344080 6.456720 -0.000001 -0.000000 -8.407700 -0.999851 18.745400 12.994200 -0.242716 4.980390 -92.370200 6.377540 -69.563600 5.348090 -0.000007 -0.000001 -78.461200 -21.343000 -8.966420 24.328600 0.000019 0.000005 35.558100 -36.318900 -129.644000 22.291600 -0.000001 0.000005 46.889000 5.017060 6.954300 12.994500 -0.242716 -4.980390 86.351200 8.473480 -66.598600 -5.348130 -0.000001 -0.000004 -71.527900 -6.282830 -13.673300 -24.328900 0.000322 -0.000009 12.344100 -14.088000 -138.042000 -22.291500 -0.000108 -0.000004 48.123500 5.654260 -15.435900 -2.192480 -6.469440 -0.000000 -175.448000 0.859290 3.148590 39.081100 -0.000007 -0.000012 0.421199 -0.784904 28.220300 40.985400 -0.000006 -0.000013 0.515073 0.283659 -76.609000 11.754300 -0.000000 0.000003 -0.000817 0.180399 -9.259120 -2.192510 6.469440 -0.000001 -173.007000 8.944800 -170.597000 -39.081100 -0.002282 -0.040193 0.161002 -0.495442 17.654100 -40.985400 0.000008 0.000006 5.658970 4.406910 -73.119800 -11.754300 -0.000006 -0.000006 -0.011379 0.281335 -5.140570
0.000000 0.000000 0.000000 0.000000 0.000000 -0.000000 -2.655800 91.647500 0.675747 85.341100 -1.631060 9.879780 15.735700 0.000005 -0.000001 74.898300 85.182300 -72.146100 8.984550 -0.406207 -0.000000 1.608140 -2.656750 5.537640 16.377300 -0.000001 -0.000001 16.759500 2.403860 8.255310 6.456720 -0.000001 -0.000000 -8.410510 -1.024090 18.577400 12.994200 -0.242716 4.980390 -92.390900 6.418000 -69.518400 5.348090 -0.000007 -0.000001 -78.459900 -21.465000 -8.884290 24.328600 0.000019 0.000005 35.607000 -36.238900 -129.540000 22.291600 -0.000001 0.000005 46.939700 5.015700 6.983550 12.994500 -0.242716 -4.980390 86.354500 8.495490 -66.671200 -5.348130 -0.000001 -0.000004 -71.515500 -6.314910 -13.646800 -24.328900 0.000322 -0.000009 12.248200 -13.966900 -138.030000 -22.291500 -0.000108 -0.000004 48.009400 5.654650 -15.477500 -2.192480 -6.469440 -0.000000 -175.448000 0.885317 3.131860 39.081100 -0.000007 -0.000012 0.411164 -0.766830 28.200700 40.985400 -0.000006 -0.000013 0.540885 0.322218 -76.526800 11.754300 -0.000000 0.000003 -0.000798 0.180122 -9.270370 -2.192510 6.469440 -0.000001 -173.026000 8.923830 -170.622000 -39.081100 -0.002282 -0.040193 0.158926 -0.487995 17.685500 -40.985400 0.000008 0.000006 5.482120 4.380040 -73.092400 -11.754300 -0.000006 -0.000006 -0.011230 0.280276 -5.183900
0.000000 0.000000 0.000000 0.000000 0.000000 -0.000000 -2.616740 91.664800 0.643142 85.353400 -1.596600 9.751650 15.735700 0.000005 -0.000001 75.050200 85.211300 -72.322900 8.984550 -0.406207 -0.000000 1.557000 -2.617050 5.486070 16.377300 -0.000001 -0.000001 16.672400 2.364440 8.148730 6.456720 -0.000001 -0.000000 -8.378200 -1.015820 18.495000 12.994200 -0.242716 4.980390 -92.410800 6.479560 -69.540900 5.348090 -0.000007 -0.000001 -78.464100 -21.533300 -8.878050 24.328600 0.000019 0.000005 35.675900 -36.277700 -129.494000 22.291600 -0.000001 0.000005 46.868800 5.001510 7.287390 12.994500 -0.242716 -4.980390 86.352100 8.489710 -66.643300 -5.348130 -0.000001 -0.000004 -71.509000 -6.355850 -13.631700 -24.328900 0.000322 -0.000009 12.214300 -13.886700 -137.951000 -22.291500 -0.000108 -0.000004 47.952400 5.654170 -15.428300 -2.192480 -6.469440 -0.000000 -175.500000 0.889051 3.014440 39.081100 -0.000007 -0.000012 0.415536 -0.777211 28.132300 40.985400 -0.000006 -0.000013 0.583374 0.338544 -76.520800 11.754300 -0.000000 0.000003 -0.000857 0.180981 -9.235480 -2.192510 6.469440 -0.000001 -173.062000 8.967260 -170.750000 -39.081100 -0.002282 -0.040193 0.157474 -0.484951 17.633800 -40.985400 0.000008 0.000006 5.463370 4.401660 -73.079200 -11.754300 -0.000006 -0.000006 -0.011422 0.281642 -5.127990
0.000000 0.000000 0.000000 0.000000 0.000000 -0.000000 -2.571170 91.667800 0.637281 85.357700 -1.593960 9.701790 15.735700 0.000005 -0.000001 75.196500 85.213000 -72.484000 8.984550 -0.406207 -0.000000 1.559000 -2.591700 5.456170 16.377300 -0.000001 -0.000001 16.602300 2.379090 8.032400 6.456720 -0.000001 -0.000000 -8.394930 -0.952891 18.336600 12.994200 -0.242716 4.980390 -92.447800 6.554010 -69.467800 5.348090 -0.000007 -0.000001 -78.466600 -21.666200 -8.889220 24.328600 0.000019 0.000005 35.291000 -35.949100 -129.673000 22.291600 -0.000001 0.000005 46.696000 5.013930 7.021410 12.994500 -0.242716 -4.980390 86.355400 8.483800 -66.647700 -5.348130 -0.000001 -0.000004 -71.494000 -6.418970 -13.615100 -24.328900 0.000322 -0.000009 12.128600 -13.778200 -137.938000 -22.291500 -0.000108 -0.000004 47.782800 5.653040 -15.313200 -2.192480 -6.469440 -0.000000 -175.514000 0.845936 2.971530 39.081100 -0.000007 -0.000012 0.413281 -0.773815 28.107000 40.985400 -0.000006 -0.000013 0.626559 0.395077 -76.455100 11.754300 -0.000000 0.000003 -0.000776 0.179805 -9.283270 -2.192510 6.469440 -0.000001 -173.073000 8.940880 -170.802000 -39.081100 -0.002282 -0.040193 0.157990 -0.486910 17.622400 -40.985400 0.000008 0.000006 5.478150 4.358280 -73.050900 -11.754300 -0.000006 -0.000006 -0.011459 0.281901 -5.117380
0.000000 0.000000 0.000000 0.000000 0.000000 -0.000000 -2.525880 91.681500 0.617803 85.368900 -1.528800 9.677270 15.735700 0.000005 -0.000001 75.415500 85.203300 -72.728600 8.984550 -0.406207 -0.000000 1.585530 -2.559180 5.405340 16.377300 -0.000001 -0.000001 16.494300 2.413510 7.856410 6.456720 -0.000001 -0.000000 -8.441130 -0.902467 18.273800 12.994200 -0.242716 4.980390 -92.461700 6.604390 -69.504600 5.348090 -0.000007 -0.000001 -78.430500 -21.746400 -8.890530 24.328600 0.000019 0.000005 35.155500 -35.800700 -129.714000 22.291600 -0.000001 0.000005 46.651900 5.010490 7.095350 12.994500 -0.242716 -4.980390 86.339300 8.508310 -66.615200 -5.348130 -0.000001 -0.000004 -71.412500 -6.525170 -13.519100 -24.328900 0.000322 -0.000009 12.133500 -13.769900 -137.909000 -22.291500 -0.000108 -0.000004 47.863800 5.651660 -15.176300 -2.192480 -6.469440 -0.000000 -175.555000 0.824092 2.944040 39.081100 -0.000007 -0.000012 0.411874 -0.772907 28.053800 40.985400 -0.000006 -0.000013 0.660707 0.393678 -76.435200 11.754300 -0.000000 0.000003 -0.000906 0.181690 -9.206660 -2.192510 6.469440 -0.000001 -173.137000 8.986500 -170.849000 -39.081100 -0.002282 -0.040193 0.155900 -0.480195 17.627000 -40.985400 0.000008 0.000006 5.361480 4.432280 -73.042900 -11.754300 -0.000006 -0.000006 -0.011832 0.284521 -5.010090
0.000000 0.000000 0.000000 0.000000 0.000000 -0.000000 -2.484440 91.690800 0.593495 85.350800 -1.505260 9.583050 15.735700 0.000005 -0.000001 75.430400 85.206500 -72.747100 8.984550 -0.406207 -0.000000 1.579860 -2.555120 5.397640 16.377300 -0.000001 -0.000001 16.417200 2.428470 7.737610 6.456720 -0.000001 -0.000000 -8.478610 -0.798777 18.057700 12.994200 -0.242716 4.980390 -92.492600 6.678910 -69.479800 5.348090 -0.000007 -0.000001 -78.376000 -21.916300 -8.869220 24.328600 0.000019 0.000005 35.113300 -35.686900 -129.680000 22.291600 -0.000001 0.000005 46.557500 5.008720 7.132930 12.994500 -0.242716 -4.980390 86.353200 8.482410 -66.631600 -5.348130 -0.000001 -0.000004 -71.414900 -6.620200 -13.413800 -24.328900 0.000322 -0.000009 12.116200 -13.737200 -137.885000 -22.291500 -0.000108 -0.000004 47.717300 5.651050 -15.116600 -2.192480 -6.469440 -0.000000 -175.573000 0.858970 2.820140 39.081100 -0.000007 -0.000012 0.412394 -0.774289 28.041300 40.985400 -0.000006 -0.000013 0.696670 0.400157 -76.357500 11.754300 -0.000000 0.000003 -0.000875 0.181237 -9.225090 -2.192510 6.469440 -0.000001 -173.117000 8.938520 -170.951000 -39.081100 -0.002282 -0.040193 0.154594 -0.477068 17.592900 -40.985400 0.000008 0.000006 5.317190 4.358630 -72.992200 -11.754300 -0.000006 -0.000006 -0.011446 0.281811 -5.121080
